<svg xmlns="http://www.w3.org/2000/svg" width="126" height="99.28" viewBox="0 0 126 99.28">
  <g id="Group_1246" data-name="Group 1246" transform="translate(-34.5 -70.3)">
    <path id="Path_5730" data-name="Path 5730" d="M424.027,484.95a17.506,17.506,0,0,0-12.005-12.273,74.97,74.97,0,0,0-41.223,0,17.507,17.507,0,0,0-12.028,12.281,77.926,77.926,0,0,0,0,40.189,17.392,17.392,0,0,0,12,12.277,74.584,74.584,0,0,0,20.522,2.887h.246a74.563,74.563,0,0,0,20.534-2.891,17.42,17.42,0,0,0,12-12.273,77.425,77.425,0,0,0,2.577-19.814v-.291a78.4,78.4,0,0,0-2.633-20.087Zm-10.45,6.438h0a53.272,53.272,0,0,1,1.793,13.653v.2a52.715,52.715,0,0,1-1.752,13.473,11.853,11.853,0,0,1-8.161,8.343,50.678,50.678,0,0,1-13.954,1.963h-.17a50.653,50.653,0,0,1-13.95-1.963,11.821,11.821,0,0,1-8.157-8.343,52.981,52.981,0,0,1,0-27.322,11.912,11.912,0,0,1,8.177-8.347,51.026,51.026,0,0,1,28.022,0,11.894,11.894,0,0,1,8.161,8.343" transform="translate(-298.637 -399.486)" fill="#0eb002" fill-rule="evenodd"/>
    <path id="Path_5731" data-name="Path 5731" d="M405.27,483.038a11.893,11.893,0,0,0-8.161-8.343,51.027,51.027,0,0,0-28.022,0,11.912,11.912,0,0,0-8.177,8.347,52.982,52.982,0,0,0,0,27.322,11.821,11.821,0,0,0,8.158,8.343,50.677,50.677,0,0,0,13.95,1.963h.166a50.689,50.689,0,0,0,13.958-1.963,11.853,11.853,0,0,0,8.161-8.343,52.71,52.71,0,0,0,1.752-13.473v-.2a53.267,53.267,0,0,0-1.793-13.653Z" transform="translate(-290.329 -391.137)" fill="#000305" fill-rule="evenodd"/>
    <path id="Path_5732" data-name="Path 5732" d="M367.86,475.147h2.97a2.341,2.341,0,0,1,2.327,2.358v1.273a1.048,1.048,0,0,0,1.044,1.058h4.011a1.069,1.069,0,0,0,1.071-1.058V477.5a2.344,2.344,0,0,1,2.331-2.358h2.739a6.373,6.373,0,0,1,6.311,6.311v3.006a2.344,2.344,0,0,1-2.327,2.362h-1.256a1.144,1.144,0,0,0-1.127,1.127v4a1.1,1.1,0,0,0,1.056,1.085h1.328a2.343,2.343,0,0,1,2.327,2.358v2.78a6.358,6.358,0,0,1-6.326,6.4h-2.9a2.328,2.328,0,0,1-2.312-2.358v-1.261a1.153,1.153,0,0,0-1.143-1.154H374.13a1.069,1.069,0,0,0-1.044,1.085v1.33a2.341,2.341,0,0,1-2.327,2.358h-2.9a6.361,6.361,0,0,1-6.243-6.4v-2.952a2.331,2.331,0,0,1,2.316-2.347h1.256a1.069,1.069,0,0,0,1.044-1.085v-3.98a1.055,1.055,0,0,0-1.044-1.054h-1.256a2.334,2.334,0,0,1-2.316-2.358v-2.937a6.335,6.335,0,0,1,6.243-6.311" transform="translate(-283.383 -384.293)" fill="#fff" fill-rule="evenodd"/>
    <text id="RealTimeTRAC" transform="translate(34.5 161.58)" fill="#000305" font-size="18" font-family="Helvetica"><tspan x="0" y="0">RealTime</tspan><tspan y="0" fill="#0eb002">TRAC</tspan></text>
    <rect id="Rectangle_751" data-name="Rectangle 751" width="40" height="3" rx="1.5" transform="translate(72.5 166.58)" fill="#ffce23"/>
  </g>
</svg>
