<?xml version="1.0" encoding="UTF-8"?>
<svg version="1.1" xmlns="http://www.w3.org/2000/svg" width="512" height="512">
<path d="M0 0 C1.50625346 0.73803713 3.01376334 1.47351509 4.52246094 2.20654297 C7.57367878 3.69107077 10.61964553 5.18560697 13.66210938 6.68798828 C19.80841158 9.71218444 26.02683787 12.57518553 32.25 15.4375 C34.52898836 16.49275015 36.80763365 17.54874155 39.0859375 18.60546875 C40.78121582 19.39123291 40.78121582 19.39123291 42.51074219 20.19287109 C48.63636462 23.03623656 54.75578519 25.89287679 60.875 28.75 C61.49765747 29.04070374 62.12031494 29.33140747 62.76184082 29.63092041 C65.91389482 31.10257881 69.06585868 32.57443013 72.21777344 34.04638672 C77.85365032 36.67824346 83.49036317 39.30830879 89.12701416 41.93850708 C92.25137712 43.39643113 95.37568581 44.85447146 98.5 46.3125 C99.74999974 46.89583389 100.99999974 47.47916722 102.25 48.0625 C169.75 79.5625 169.75 79.5625 171.62463379 80.43736267 C172.8758202 81.02122727 174.12704096 81.60501825 175.3782959 82.18873596 C178.48542839 83.63834225 181.59197158 85.08918381 184.69726562 86.54272461 C190.53481815 89.27358216 196.3775633 91.99128139 202.24023438 94.6678772 C204.99872704 95.92814432 207.75410707 97.19513554 210.50927734 98.46264648 C211.81926378 99.06301677 213.13075541 99.66011539 214.44384766 100.25366211 C231.17134653 107.81715623 231.17134653 107.81715623 234 114.8125 C234.25299966 117.12340629 234.25299966 117.12340629 234.25726891 119.72326469 C234.2637178 120.71681304 234.27016669 121.71036138 234.276811 122.73401725 C234.2737138 123.82330248 234.2706166 124.91258772 234.26742554 126.03488159 C234.27195665 127.19379477 234.27648776 128.35270794 234.28115618 129.5467397 C234.29163751 132.76420844 234.29312413 135.98153687 234.29076743 139.19901729 C234.29035961 142.66877648 234.30139505 146.13850221 234.31088257 149.60824585 C234.32750089 156.40630919 234.33299248 163.20433786 234.33410732 170.00241981 C234.33505737 175.52764083 234.33916551 181.05285039 234.34550858 186.57806778 C234.36312301 202.23990509 234.37234709 217.90171497 234.37084763 233.56356226 C234.37072776 234.83026544 234.37072776 234.83026544 234.37060547 236.12255859 C234.37052371 236.96805732 234.37044195 237.81355605 234.37035771 238.68467595 C234.36954468 252.38945156 234.38868604 266.0941173 234.4168822 279.79886113 C234.44559924 293.86767897 234.45942316 307.9364432 234.45769465 322.0052911 C234.45703035 329.90515413 234.46253995 337.80490197 234.48405075 345.70473862 C234.50224703 352.43046531 234.50662275 359.1560246 234.4930319 365.88176523 C234.48649437 369.31345511 234.48641283 372.74482369 234.5037384 376.17648315 C234.51910936 379.89666182 234.50993545 383.61599153 234.49447632 387.33615112 C234.50990701 388.96338681 234.50990701 388.96338681 234.52564943 390.62349594 C234.47137616 396.51701449 234.10989285 400.23208085 230 404.8125 C224.78604651 409.29511715 217.97874791 411.66347664 211.65380859 414.13696289 C210.64744354 414.53782104 209.64107849 414.9386792 208.60421753 415.35168457 C205.28852231 416.67028072 201.96854946 417.97772551 198.6484375 419.28515625 C196.31007662 420.21263512 193.97199761 421.14082493 191.63418579 422.06968689 C186.09799208 424.26741483 180.55908814 426.45820874 175.01878321 428.64554447 C168.22212496 431.32931087 161.4294009 434.02298482 154.63671875 436.71679688 C146.31661859 440.01559233 137.99564347 443.31215926 129.67334461 446.6054039 C115.8272242 452.08473573 101.99447998 457.59590924 88.1739502 463.13949585 C79.99671487 466.41824008 71.81553901 469.68715499 63.63536835 472.95856667 C58.36944447 475.06458078 53.10367527 477.17098155 47.83789062 479.27734375 C45.6996264 480.13265161 43.56136142 480.98795759 41.4230957 481.84326172 C40.35720215 482.26961914 39.29130859 482.69597656 38.19311523 483.13525391 C-6.99403381 501.21011353 -6.99403381 501.21011353 -9.12632179 502.05761051 C-10.67261862 502.68060074 -12.20684645 503.33345829 -13.7374115 503.99415588 C-25.7012543 508.32129728 -37.89438021 501.4420252 -48.78125 496.91796875 C-50.86758075 496.0693265 -52.9547111 495.22264778 -55.04257202 494.3777771 C-59.52400118 492.55995906 -63.99999101 490.72955636 -68.47210693 488.88894653 C-75.56835862 485.96860573 -82.67572803 483.07609532 -89.78564453 480.18920898 C-92.22624653 479.1979398 -94.66682865 478.20662166 -97.10739136 477.21525574 C-98.32893795 476.71907431 -99.55048454 476.22289288 -100.8090477 475.71167564 C-104.56966328 474.18344428 -108.32873085 472.6514268 -112.087677 471.11909485 C-129.7216199 463.93281488 -147.39023553 456.83744888 -165.0859375 449.8046875 C-166.30387749 449.32059481 -167.52181747 448.83650211 -168.77666473 448.33773994 C-177.14158043 445.01381077 -185.50816029 441.69408242 -193.875 438.375 C-207.60209076 432.92861269 -221.32788131 427.47922187 -235.03863907 421.99181843 C-240.05906405 419.98331503 -245.08450019 417.98855692 -250.11693382 416.0103426 C-252.88076238 414.92030979 -255.63899529 413.81670523 -258.39557266 412.70847893 C-260.17706421 411.9970884 -261.96534097 411.3027608 -263.75387573 410.60926819 C-270.5101971 407.86992183 -274.65560447 405.50129106 -278 398.8125 C-278.09695227 397.2599911 -278.13098114 395.70336081 -278.13422108 394.14783096 C-278.14090784 392.66348159 -278.14090784 392.66348159 -278.14772969 391.14914536 C-278.14754533 390.05403445 -278.14736097 388.95892354 -278.14717102 387.83062744 C-278.15084771 386.67342312 -278.1545244 385.51621879 -278.1583125 384.32394767 C-278.16745069 381.1019967 -278.17205152 377.88007567 -278.17470181 374.65811396 C-278.17860077 371.18696454 -278.1881794 367.71582993 -278.19691467 364.24468994 C-278.21669092 355.85684625 -278.22674688 347.46900134 -278.23564246 339.08114016 C-278.24002357 335.13298821 -278.24539085 331.1848376 -278.25063133 327.23668671 C-278.26764497 314.11516218 -278.2821396 300.99363851 -278.28938007 287.87210464 C-278.29129003 284.46584319 -278.29321035 281.05958174 -278.29516602 277.65332031 C-278.29564976 276.80669058 -278.2961335 275.96006085 -278.2966319 275.08777568 C-278.30493391 261.36994534 -278.33027309 247.65220216 -278.36274669 233.93440989 C-278.3958013 219.85662135 -278.41382739 205.77887712 -278.41702431 191.70104957 C-278.41919093 183.79444206 -278.42796155 175.88796164 -278.45348549 167.98139191 C-278.47517072 161.248306 -278.48325372 154.51537803 -278.47351871 147.78226116 C-278.46896757 144.34652838 -278.47090683 140.91112162 -278.49028015 137.47543335 C-278.50788638 133.75078039 -278.50094742 130.02695962 -278.48774719 126.30230713 C-278.49871644 125.2161191 -278.50968568 124.12993107 -278.52098733 123.01082826 C-278.46902718 116.95551311 -278.03146767 113.43189976 -274 108.8125 C-267.54211547 103.05007996 -258.0568036 99.93326759 -250.25 96.3125 C-248.72408369 95.60020079 -247.19837029 94.88746672 -245.67285156 94.17431641 C-241.8348347 92.38175603 -237.99398472 90.59537214 -234.15185547 88.81164551 C-232.15421015 87.88410257 -230.1570564 86.95551308 -228.16015625 86.02636719 C-222.41354661 83.35290339 -216.66482544 80.68404868 -210.9140625 78.01953125 C-203.64524087 74.65042102 -196.38434657 71.26446224 -189.125 67.875 C-188.50234253 67.58429626 -187.87968506 67.29359253 -187.23815918 66.99407959 C-184.08610518 65.52242119 -180.93414132 64.05056987 -177.78222656 62.57861328 C-172.14634968 59.94675654 -166.50963683 57.31669121 -160.87298584 54.68649292 C-157.74862288 53.22856887 -154.62431419 51.77052854 -151.5 50.3125 C-150.25000026 49.72916611 -149.00000026 49.14583278 -147.75 48.5625 C-146.821875 48.129375 -146.821875 48.129375 -145.875 47.6875 C-110.25 31.0625 -110.25 31.0625 -108.37506104 30.18753052 C-107.12485551 29.60409991 -105.87465206 29.02066485 -104.62445068 28.43722534 C-101.50261231 26.98034373 -98.38073803 25.52353915 -95.25878906 24.06689453 C-87.72149918 20.55001644 -87.72149918 20.55001644 -80.18554688 17.03027344 C-79.55427887 16.73528961 -78.92301086 16.44030579 -78.27261353 16.13638306 C-76.99794951 15.54063983 -75.72335224 14.94475378 -74.44882202 14.34872437 C-71.30416416 12.87861305 -68.15800669 11.41190461 -65.00830078 9.95263672 C-59.49719727 7.39687685 -53.99744051 4.82737826 -48.546875 2.14437866 C-46.78259612 1.27779825 -45.01290651 0.42226185 -43.24316406 -0.43310547 C-41.07704587 -1.48099419 -38.91926188 -2.54638567 -36.77246094 -3.63330078 C-22.78299362 -10.33342243 -13.0311868 -6.57725864 0 0 Z M-29.55859375 30.1640625 C-30.65179932 30.6787207 -31.74500488 31.19337891 -32.87133789 31.72363281 C-34.04817139 32.28920898 -35.22500488 32.85478516 -36.4375 33.4375 C-37.67849417 34.02538799 -38.91995871 34.61228399 -40.16186523 35.19824219 C-42.77496877 36.43231704 -45.38575986 37.67111081 -47.99511719 38.91308594 C-51.93826798 40.78703719 -55.89290197 42.63563903 -59.8515625 44.4765625 C-60.4931279 44.77494019 -61.1346933 45.07331787 -61.79570007 45.3807373 C-63.08112998 45.9784504 -64.36658615 46.57610703 -65.65206909 47.17370605 C-77.45974707 52.66701788 -89.24153485 58.21464128 -101 63.8125 C-97.53941826 66.11955449 -93.91192824 67.65825507 -90.1015625 69.27734375 C-88.89495468 69.79412689 -88.89495468 69.79412689 -87.66397095 70.3213501 C-84.98562763 71.46733452 -82.30536242 72.60874688 -79.625 73.75 C-77.7235677 74.56210342 -75.82220171 75.37436213 -73.92089844 76.18676758 C-58.85570973 82.61826667 -43.76543629 88.99023935 -28.67041016 95.35131836 C-13.76437961 101.63456459 1.12032439 107.96712443 16 114.3125 C33.36297703 121.71610115 50.73489556 129.09782304 68.125 136.4375 C69.05844238 136.83155029 69.99188477 137.22560059 70.95361328 137.6315918 C72.3088208 138.203573 72.3088208 138.203573 73.69140625 138.78710938 C74.56343689 139.15555969 75.43546753 139.52401001 76.33392334 139.90362549 C78.00327414 140.606327 79.67432317 141.30501091 81.347229 141.99920654 C84.7987226 143.43429229 88.18248624 144.90180606 91.54199219 146.54589844 C92.55680664 147.03348633 93.57162109 147.52107422 94.6171875 148.0234375 C95.43558105 148.4467334 96.25397461 148.8700293 97.09716797 149.30615234 C106.15212712 150.88562966 116.89104325 144.18566191 125.1953125 140.83203125 C126.63818413 140.2530135 128.08121056 139.67438135 129.52438354 139.09611511 C133.29052861 137.58587058 137.05457183 136.07045681 140.81817627 134.55389404 C144.67177997 133.00215454 148.52738319 131.4553998 152.3828125 129.90820312 C159.92382186 126.8811304 167.46261435 123.84858443 175 120.8125 C175 120.1525 175 119.4925 175 118.8125 C157.2683591 110.18677112 139.47206058 101.73131966 121.56982422 93.46435547 C115.41458833 90.61615919 109.2699748 87.74524987 103.125 84.875 C101.86727883 84.2877391 100.6095477 83.70049954 99.35180664 83.11328125 C96.82855793 81.93517708 94.30537188 80.75693887 91.78222656 79.57861328 C86.14634968 76.94675654 80.50963683 74.31669121 74.87298584 71.68649292 C71.74862288 70.22856887 68.62431419 68.77052854 65.5 67.3125 C64.25000026 66.72916611 63.00000026 66.14583278 61.75 65.5625 C54.25000002 62.06250001 54.25000002 62.06250001 52.37519836 61.18759155 C51.12453819 60.60395082 49.87387697 60.02031231 48.62321472 59.43667603 C45.50830688 57.98306419 42.39341683 56.52941428 39.27856445 55.07568359 C33.53327118 52.39434905 27.78784239 49.71330672 22.04173279 47.03372192 C20.71344962 46.41425327 19.38521242 45.79468602 18.05702209 45.17501831 C14.83574074 43.67214725 11.61394649 42.17040259 8.39086914 40.67138672 C3.08226797 38.2004324 -2.21960604 35.71962066 -7.484375 33.15625 C-8.27481201 32.77388184 -9.06524902 32.39151367 -9.87963867 31.99755859 C-11.27194616 31.32141508 -12.66057849 30.63761341 -14.04418945 29.94384766 C-20.03959815 27.03988498 -23.61257047 27.33061828 -29.55859375 30.1640625 Z M-148.09375 85.1875 C-149.27428955 85.75388184 -150.4548291 86.32026367 -151.67114258 86.90380859 C-152.94752529 87.53984463 -154.22380853 88.17608032 -155.5 88.8125 C-156.82931913 89.45731301 -158.15966087 90.10002171 -159.4909668 90.74072266 C-162.26670242 92.07852093 -165.03777631 93.42536288 -167.80615234 94.77832031 C-173.80046632 97.69806125 -179.85089678 100.49651076 -185.90008545 103.30023193 C-189.01796986 104.74677984 -192.13204202 106.20147407 -195.24609375 107.65625 C-196.39706543 108.19378906 -197.54803711 108.73132813 -198.73388672 109.28515625 C-205.49572021 112.44721563 -212.24989113 115.62549845 -219 118.8125 C-216.77659143 121.30229152 -214.81539468 122.50697561 -211.72143555 123.72827148 C-210.84357391 124.07927917 -209.96571228 124.43028687 -209.06124878 124.79193115 C-208.09615387 125.16867981 -207.13105896 125.54542847 -206.13671875 125.93359375 C-205.11216583 126.34087708 -204.08761292 126.7481604 -203.03201294 127.16778564 C-199.58661531 128.53563673 -196.1370339 129.89261743 -192.6875 131.25 C-190.22386226 132.22612415 -187.7605102 133.20293455 -185.29760742 134.1809082 C-181.35967547 135.74404085 -177.42145327 137.30642237 -173.48182678 138.86528015 C-160.0943119 144.16307364 -146.72988838 149.51799312 -133.36594391 154.87489891 C-128.25549158 156.92297293 -123.14336323 158.96682088 -118.03027344 161.00830078 C-117.30048027 161.29970507 -116.5706871 161.59110935 -115.81877899 161.89134407 C-112.85236083 163.07580268 -109.885939 164.2602521 -106.91946411 165.44456863 C-97.57082758 169.17751031 -88.22847045 172.92558587 -78.89343357 176.69241238 C-72.53117745 179.25938571 -66.16554935 181.81786438 -59.7974844 184.3703928 C-56.00702014 185.89029051 -52.21856298 187.41481034 -48.43447876 188.95053101 C-44.91488047 190.37887358 -41.39070764 191.79524741 -37.86263657 193.20252609 C-36.57051625 193.72045392 -35.28017645 194.24284935 -33.99179459 194.77000809 C-32.23234195 195.4891956 -30.46580467 196.19097783 -28.69897461 196.8918457 C-27.22031166 197.48797417 -27.22031166 197.48797417 -25.71177673 198.09614563 C-20.25192636 199.53844272 -15.58738169 196.9874944 -10.54760742 194.94506836 C-9.8153595 194.65231522 -9.08311157 194.35956207 -8.32867432 194.05793762 C-5.91928088 193.09348601 -3.5123853 192.12295832 -1.10546875 191.15234375 C0.56875271 190.48078925 2.24312727 189.80961634 3.91764832 189.1388092 C8.31679345 187.37533966 12.71384249 185.60670144 17.11047363 183.8369751 C21.60038828 182.0307657 26.09226801 180.2294574 30.58398438 178.42773438 C39.39125196 174.89411415 48.19631271 171.35502986 57 167.8125 C54.07017281 164.88267281 50.38692866 163.72782671 46.61328125 162.1640625 C45.74579758 161.79985199 44.8783139 161.43564148 43.98454285 161.06039429 C42.09329174 160.266968 40.20110231 159.4757756 38.30810547 158.68652344 C34.2265534 156.98471249 30.1494727 155.27231163 26.07211304 153.56048584 C23.9349904 152.6633389 21.79763688 151.7667418 19.6600647 150.8706665 C9.5623778 146.63603938 -0.51346177 142.35091493 -10.58538818 138.05545044 C-27.63497883 130.78456926 -44.70019831 123.55167201 -61.78103638 116.35452271 C-73.40470872 111.45616183 -85.01686023 106.53151303 -96.6171875 101.578125 C-97.8640625 101.04590719 -99.1109446 100.51370601 -100.35783386 99.98152161 C-106.42686946 97.39088838 -112.49467945 94.79742658 -118.56079102 92.19995117 C-120.7683547 91.25691155 -122.97595385 90.31395493 -125.18359375 89.37109375 C-126.19086517 88.93867371 -127.1981366 88.50625366 -128.2359314 88.06072998 C-130.81685197 86.95987074 -133.40687275 85.88416901 -136 84.8125 C-137.08740479 84.33949463 -138.17480957 83.86648926 -139.29516602 83.37915039 C-142.98920747 82.60526554 -144.72997323 83.53600087 -148.09375 85.1875 Z M-246 144.8125 C-246 223.0225 -246 301.2325 -246 381.8125 C-226.2 389.7325 -206.4 397.6525 -186 405.8125 C-155.79125977 417.89599609 -155.79125977 417.89599609 -125.58251953 429.97949219 C-123.92959522 430.64065285 -123.92959522 430.64065285 -122.2432785 431.31517029 C-120.02608331 432.20206055 -117.80890489 433.08899273 -115.59174347 433.97596741 C-110.19644349 436.13429695 -104.80087529 438.29195014 -99.40466309 440.44799805 C-90.24553867 444.10827687 -81.08822559 447.77263211 -71.94255447 451.46642303 C-68.17447217 452.98808147 -64.40499468 454.50626596 -60.63542938 456.02424622 C-58.88436256 456.73067178 -57.13404594 457.43896014 -55.38452911 458.1492157 C-53.00523511 459.11510792 -50.62353985 460.07482622 -48.24121094 461.03320312 C-47.54465141 461.31802048 -46.84809189 461.60283783 -46.1304245 461.89628601 C-43.25243673 463.04789042 -41.13229683 463.8125 -38 463.8125 C-38 385.9325 -38 308.0525 -38 227.8125 C-116.85377961 196.10310346 -116.85377961 196.10310346 -195.74169922 164.47875977 C-200.94405858 162.39783789 -206.14540354 160.31438989 -211.34662819 158.23063374 C-215.51506722 156.5610643 -219.68411116 154.89300992 -223.85334396 153.22542381 C-225.78417562 152.45285757 -227.71478761 151.67974205 -229.64516068 150.90603065 C-232.23106065 149.86974172 -234.81779847 148.83557442 -237.40478516 147.80200195 C-238.16816193 147.49552734 -238.9315387 147.18905273 -239.7180481 146.87329102 C-242.76932674 145.43915002 -242.76932674 145.43915002 -246 144.8125 Z M190.58203125 149.0625 C189.69611801 149.41856323 188.81020477 149.77462646 187.89744568 150.14147949 C185.92643741 150.93440168 183.95640131 151.72974338 181.98718262 152.52709961 C178.72927813 153.84619579 175.4689785 155.15920647 172.20800781 156.47070312 C168.56438691 157.93627023 164.92088952 159.40213607 161.27828979 160.87023926 C150.97199795 165.02358528 140.65744372 169.1560828 130.33984375 173.28125 C129.53018284 173.60497463 128.72052193 173.92869926 127.88632584 174.26223373 C123.7083093 175.9326399 119.53019865 177.60281055 115.35205078 179.27288818 C107.65674585 182.34897773 99.96230808 185.42723523 92.26779556 188.50530624 C87.95835028 190.22921031 83.6488501 191.95297712 79.33935547 193.67675781 C77.61643447 194.36592545 75.89351373 195.05509374 74.17059326 195.7442627 C47.44706217 206.43367513 20.72353109 217.12308757 -6 227.8125 C-6 306.0225 -6 384.2325 -6 464.8125 C10.48497818 458.47212378 26.93114551 452.08897586 43.30859375 445.484375 C45.49064924 444.60627056 47.6727857 443.72836729 49.85499573 442.85064697 C55.57560124 440.54923419 61.29531814 438.24562206 67.01477051 435.94134521 C111.98125266 417.82661576 156.9890453 399.81688188 202 381.8125 C202 303.9325 202 226.0525 202 145.8125 C197.80575994 145.8125 194.41010823 147.50249283 190.58203125 149.0625 Z " fill="#000000" transform="translate(278,7.1875)"/>
</svg>
