<svg id="call_black_24dp" xmlns="http://www.w3.org/2000/svg" width="24" height="24" viewBox="0 0 24 24">
  <path id="Path_14" data-name="Path 14" d="M0,0H24V24H0Z" fill="none"/>
  <path id="Path_15" data-name="Path 15" d="M16.057,12.861l-2.043-.233a1.6,1.6,0,0,0-1.319.458l-1.48,1.48a12.1,12.1,0,0,1-5.3-5.3L7.4,7.779A1.6,1.6,0,0,0,7.862,6.46L7.629,4.433a1.609,1.609,0,0,0-1.6-1.423H4.638A1.6,1.6,0,0,0,3.029,4.675,13.664,13.664,0,0,0,15.808,17.453a1.6,1.6,0,0,0,1.665-1.608V14.454A1.594,1.594,0,0,0,16.057,12.861Z" transform="translate(1.759 1.759)" fill="#18b207"/>
</svg>
