<svg xmlns="http://www.w3.org/2000/svg" width="20" height="20" viewBox="0 0 20 20">
  <g id="Group_1263" data-name="Group 1263" transform="translate(-241.613 -436)">
    <path id="Path_14761" data-name="Path 14761" d="M10,0A10,10,0,1,0,20,10,10,10,0,0,0,10,0Zm0,18.333A8.333,8.333,0,1,1,18.333,10,8.333,8.333,0,0,1,10,18.333Z" transform="translate(241.613 436)" fill="#0eb002"/>
    <path id="Path_14762" data-name="Path 14762" d="M11.193,6a.833.833,0,0,0-.833.833v3.6L7.55,12.2a.835.835,0,0,0,.885,1.417l3.2-2a.833.833,0,0,0,.391-.715V6.833A.833.833,0,0,0,11.193,6Z" transform="translate(240.42 435)" fill="#0eb002"/>
  </g>
</svg>
