<svg xmlns="http://www.w3.org/2000/svg" width="60.594" height="67.621" viewBox="0 0 60.594 67.621">
  <g id="Group_1244" data-name="Group 1244" transform="translate(-2.399 -313.366)">
    <path id="Path_14777" data-name="Path 14777" d="M-169.735,87.454v-25.6a6.13,6.13,0,0,0-3.065-5.308l-22.168-12.8a6.129,6.129,0,0,0-6.129,0l-22.167,12.8a6.129,6.129,0,0,0-3.065,5.308v25.6a6.129,6.129,0,0,0,3.065,5.308l22.167,12.8a6.13,6.13,0,0,0,6.129,0l22.168-12.8A6.13,6.13,0,0,0-169.735,87.454Z" transform="translate(230.728 272.521)" fill="#fff" stroke="#0EB002" stroke-miterlimit="10" stroke-width="4"/>
    <text id="D" transform="translate(21.707 358.275)" fill="#0EB002" font-size="36" font-family="Helvetica-Bold, Helvetica" font-weight="700"><tspan x="0" y="0">D</tspan></text>
  </g>
</svg>
