<svg xmlns="http://www.w3.org/2000/svg" viewBox="0 0 122.9 100.9" fill="#30a836" xmlns:v="https://vecta.io/nano"><path d="M81.7 35.383l-17.4-10a5.98 5.98 0 0 0-5.8 0l-17.3 10c-1.8 1-2.9 3-2.9 5v20c0 2.1 1.1 4 2.9 5l17.3 10c.9.5 1.9.8 2.9.8s2-.3 2.9-.8l17.4-10c1.8-1 2.9-3 2.9-5v-20c0-2-1.1-3.9-2.9-5zm.9 25.1c0 1.4-.7 2.6-1.9 3.3l-17.4 10a3.7 3.7 0 0 1-3.8 0l-17.3-10c-1.2-.7-1.9-1.9-1.9-3.3v-20c0-1.4.7-2.6 1.9-3.3l17.3-10c.6-.3 1.2-.5 1.9-.5.6 0 1.3.2 1.9.5l17.4 10c1.2.7 1.9 1.9 1.9 3.3v20z"/><path d="M61 39.383h-7.5v21.1H61c3.4 0 6.1-1 8.2-2.9s3.1-4.6 3.1-7.9c-.1-6.9-3.8-10.3-11.3-10.3zm4.5 15.4c-1.2 1.2-2.8 1.9-4.8 1.9h-2.3v-13.4h2.3c2.1 0 3.7.6 4.9 1.7s1.7 2.7 1.7 4.7c-.1 2.2-.6 3.9-1.8 5.1z" enable-background="new"/></svg>