<svg xmlns="http://www.w3.org/2000/svg" width="16.667" height="20" viewBox="0 0 16.667 20">
  <g id="trash_1_" data-name="trash (1)" transform="translate(-2)">
    <path id="Path_14781" data-name="Path 14781" d="M17.833,3.333H15.25A4.174,4.174,0,0,0,11.167,0H9.5A4.174,4.174,0,0,0,5.417,3.333H2.833A.833.833,0,0,0,2.833,5h.833V15.833A4.172,4.172,0,0,0,7.833,20h5A4.172,4.172,0,0,0,17,15.833V5h.833a.833.833,0,0,0,0-1.667ZM9.5,1.667h1.667a2.5,2.5,0,0,1,2.358,1.667H7.142A2.5,2.5,0,0,1,9.5,1.667Zm5.833,14.167a2.5,2.5,0,0,1-2.5,2.5h-5a2.5,2.5,0,0,1-2.5-2.5V5h10Z" fill="#de2525"/>
    <path id="Path_14782" data-name="Path 14782" d="M10,18a1,1,0,0,0,1-1V11a1,1,0,0,0-2,0v6A1,1,0,0,0,10,18Z" transform="translate(-1.296 -2.5)" fill="#de2525"/>
    <path id="Path_14783" data-name="Path 14783" d="M14,18a1,1,0,0,0,1-1V11a1,1,0,0,0-2,0v6A1,1,0,0,0,14,18Z" transform="translate(-2.037 -2.5)" fill="#de2525"/>
  </g>
</svg>
