<svg xmlns="http://www.w3.org/2000/svg" width="28.001" height="24" viewBox="0 0 28.001 24">
  <path id="thumb" d="M1.436,15.916a5.826,5.826,0,0,0,4.4,2.008h4.653L10.1,20.3a3.543,3.543,0,0,0,6.674,2.143l2.233-4.524h3.164A5.84,5.84,0,0,0,28,12.091V6.259A5.84,5.84,0,0,0,22.169.426H6.654A5.861,5.861,0,0,0,.879,5.442L.056,11.275A5.833,5.833,0,0,0,1.436,15.916ZM25.668,6.259v5.833a3.5,3.5,0,0,1-3.5,3.5H19.836V2.759h2.333A3.5,3.5,0,0,1,25.668,6.259ZM2.372,11.6,3.2,5.77A3.514,3.514,0,0,1,6.654,2.759H17.5V15.9a1.167,1.167,0,0,0-.268.341l-2.554,5.174a1.248,1.248,0,0,1-2.009.241,1.2,1.2,0,0,1-.272-.98l.616-3.733a1.167,1.167,0,0,0-1.151-1.353H5.838A3.5,3.5,0,0,1,2.372,11.6Z" transform="translate(0 -0.426)" fill="#0eb002"/>
</svg>
