<svg xmlns="http://www.w3.org/2000/svg" width="24" height="24" viewBox="0 0 24 24">
  <g id="Group_1263" data-name="Group 1263" transform="translate(165 -4409)">
    <path id="Path_5920" data-name="Path 5920" d="M12,0A12,12,0,0,0,0,12a12.222,12.222,0,0,0,1.61,6.007A11.877,11.877,0,0,0,12,24,12,12,0,0,0,12,0Zm0,22A10,10,0,1,1,22,12,10,10,0,0,1,12,22Z" transform="translate(-165 4409)" fill="#0eb002"/>
    <path id="Path_5921" data-name="Path 5921" d="M-158.256,4418.942l3.3,3.936,8.451-5.847" transform="translate(-693.309 31.625) rotate(-9)" fill="none" stroke="#0eb002" stroke-linecap="round" stroke-linejoin="round" stroke-width="1.9"/>
  </g>
</svg>
