<svg xmlns="http://www.w3.org/2000/svg" width="14.336" height="14.314" viewBox="0 0 14.336 14.314">
  <path id="pencil" d="M13.635.718a2.454,2.454,0,0,0-3.391,0L.962,10A3.264,3.264,0,0,0,0,12.321v1.135a.9.9,0,0,0,.9.9H2.031a3.264,3.264,0,0,0,2.323-.962l9.28-9.282a2.4,2.4,0,0,0,0-3.391ZM3.086,12.123a1.5,1.5,0,0,1-1.055.437H1.792v-.239a1.505,1.505,0,0,1,.437-1.056L9.14,4.357,10,5.213Zm9.28-9.282-1.1,1.1-.857-.857,1.105-1.1a.619.619,0,0,1,.856,0,.606.606,0,0,1,0,.855Z" transform="translate(0 -0.038)" fill="#0eb002"/>
</svg>
