<svg xmlns="http://www.w3.org/2000/svg" width="28.001" height="24" viewBox="0 0 28.001 24">
  <path id="thumb" d="M26.565,8.936a5.826,5.826,0,0,0-4.4-2.008H17.511L17.9,4.547A3.543,3.543,0,0,0,11.229,2.4L9,6.928H5.833A5.84,5.84,0,0,0,0,12.761v5.833a5.84,5.84,0,0,0,5.833,5.833H21.347a5.861,5.861,0,0,0,5.775-5.016l.822-5.833A5.833,5.833,0,0,0,26.565,8.936ZM2.333,18.593V12.761a3.5,3.5,0,0,1,3.5-3.5H8.166V22.093H5.833A3.5,3.5,0,0,1,2.333,18.593Zm23.3-5.344-.824,5.833a3.514,3.514,0,0,1-3.459,3.011H10.5V8.951a1.167,1.167,0,0,0,.268-.341L13.32,3.437A1.248,1.248,0,0,1,15.329,3.2a1.2,1.2,0,0,1,.272.98l-.616,3.733a1.167,1.167,0,0,0,1.151,1.353h6.027A3.5,3.5,0,0,1,25.63,13.25Z" transform="translate(0 -0.426)" fill="#fff"/>
</svg>
