<svg xmlns="http://www.w3.org/2000/svg" width="24.54" height="26.708" viewBox="0 0 24.54 26.708">
  <g id="power" transform="translate(0.275 0.25)">
    <path id="Path_5927" data-name="Path 5927" d="M225.7,0h0a1.636,1.636,0,0,1,1.635,1.635V7.087A1.636,1.636,0,0,1,225.7,8.723h0a1.636,1.636,0,0,1-1.635-1.635V1.635A1.635,1.635,0,0,1,225.7,0Z" transform="translate(-213.706)" fill="#0eb002" stroke="#fff" stroke-width="0.5"/>
    <path id="Path_5928" data-name="Path 5928" d="M37.254,74.935h0a1.584,1.584,0,0,0,.732,1.359,8.723,8.723,0,1,1-9.115.012,1.6,1.6,0,0,0,.751-1.369h0a1.635,1.635,0,0,0-2.508-1.388,11.994,11.994,0,1,0,12.657,0,1.641,1.641,0,0,0-2.516,1.387Z" transform="translate(-21.447 -69.549)" fill="#0eb002" stroke="#fff" stroke-width="0.5"/>
  </g>
</svg>
