<?xml version="1.0" encoding="utf-8"?>
<!-- Generator: Adobe Illustrator 16.0.0, SVG Export Plug-In . SVG Version: 6.00 Build 0)  -->
<!DOCTYPE svg PUBLIC "-//W3C//DTD SVG 1.1//EN" "http://www.w3.org/Graphics/SVG/1.1/DTD/svg11.dtd">
<svg version="1.1" id="Layer_1" xmlns="http://www.w3.org/2000/svg" xmlns:xlink="http://www.w3.org/1999/xlink" x="0px" y="0px"
	 width="130.25px" height="102.629px" viewBox="0 -3.349 130.25 102.629" enable-background="new 0 -3.349 130.25 102.629"
	 xml:space="preserve">
<path id="Path_5730" fill="#0EB002" d="M97.76,14.852c-1.584-5.907-6.135-10.56-12.006-12.273c-13.471-3.852-27.752-3.852-41.223,0
	C38.65,4.287,34.088,8.944,32.503,14.859c-3.514,13.166-3.514,27.023,0,40.189c1.561,5.919,6.119,10.582,12,12.277
	c6.673,1.912,13.581,2.885,20.522,2.887h0.245c6.946-0.002,13.858-0.976,20.534-2.891c5.879-1.699,10.434-6.359,12-12.273
	c1.711-6.465,2.578-13.125,2.578-19.814v-0.291c-0.006-6.781-0.891-13.533-2.634-20.087L97.76,14.852z M87.309,21.29L87.309,21.29
	c1.187,4.454,1.789,9.043,1.793,13.653v0.2c0,4.548-0.589,9.076-1.752,13.473c-1.067,4.021-4.164,7.187-8.16,8.343
	c-4.537,1.301-9.234,1.962-13.954,1.963h-0.17c-4.719-0.001-9.415-0.662-13.95-1.963c-3.998-1.152-7.096-4.32-8.157-8.343
	c-2.389-8.951-2.389-18.372,0-27.322c1.08-4.02,4.18-7.184,8.177-8.347c9.157-2.615,18.864-2.615,28.022,0
	c3.991,1.164,7.086,4.327,8.161,8.343"/>
<path id="Path_5731" fill="#000305" d="M87.309,21.288c-1.075-4.017-4.17-7.18-8.162-8.343c-9.157-2.615-18.864-2.615-28.022,0
	c-3.996,1.163-7.097,4.327-8.177,8.347c-2.389,8.951-2.389,18.371,0,27.322c1.062,4.023,4.16,7.192,8.158,8.343
	c4.536,1.3,9.231,1.962,13.95,1.963h0.166c4.722-0.001,9.42-0.661,13.958-1.963c3.996-1.156,7.094-4.323,8.162-8.343
	c1.162-4.396,1.751-8.925,1.752-13.473v-0.2c-0.005-4.609-0.607-9.199-1.793-13.653H87.309z"/>
<path id="Path_5732" fill="#FFFFFF" d="M56.845,20.242h2.97c1.293,0.008,2.335,1.063,2.327,2.355c0,0.001,0,0.002,0,0.003v1.273
	c-0.006,0.579,0.459,1.052,1.038,1.058c0.002,0,0.004,0,0.006,0h4.011c0.588,0.001,1.065-0.471,1.071-1.058v-1.278
	c-0.008-1.295,1.036-2.351,2.33-2.358l0,0h2.74c3.471,0.034,6.277,2.84,6.311,6.311v3.006c0.01,1.294-1.031,2.352-2.326,2.362
	c0,0,0,0-0.001,0h-1.256c-0.618,0.009-1.118,0.508-1.128,1.127v4c0.008,0.585,0.473,1.062,1.057,1.085h1.328
	c1.293,0.009,2.335,1.064,2.327,2.358v2.78c0.022,3.511-2.805,6.376-6.315,6.4c-0.004,0-0.008,0-0.011,0h-2.899
	c-1.286-0.009-2.321-1.058-2.313-2.344c0-0.005,0.001-0.009,0.001-0.014v-1.261c0-0.633-0.51-1.148-1.144-1.154h-3.854
	c-0.587,0.014-1.053,0.498-1.044,1.085v1.33c0.01,1.293-1.031,2.349-2.324,2.358c-0.001,0-0.002,0-0.003,0h-2.899
	c-3.482-0.064-6.266-2.917-6.243-6.4v-2.952c-0.009-1.287,1.027-2.338,2.314-2.347c0.001,0,0.001,0,0.001,0h1.257
	c0.587-0.014,1.053-0.498,1.044-1.085v-3.98c-0.001-0.578-0.467-1.048-1.044-1.054h-1.257c-1.289-0.01-2.325-1.063-2.315-2.352
	c0-0.002,0-0.004,0-0.006v-2.937C50.613,23.099,53.39,20.292,56.845,20.242"/>
<g>
	<g enable-background="new    ">
		<path fill="#000305" d="M4.565,91.28V78.395h5.713c1.148,0,2.021,0.116,2.619,0.348s1.075,0.64,1.433,1.226
			s0.536,1.233,0.536,1.942c0,0.914-0.296,1.685-0.888,2.312s-1.506,1.025-2.742,1.195c0.451,0.217,0.794,0.431,1.028,0.642
			c0.498,0.457,0.97,1.028,1.415,1.714l2.241,3.507h-2.145l-1.705-2.681c-0.498-0.773-0.908-1.365-1.23-1.775
			s-0.611-0.697-0.866-0.861s-0.514-0.278-0.778-0.343c-0.193-0.041-0.51-0.062-0.949-0.062H6.271v5.722H4.565z M6.271,84.082h3.665
			c0.779,0,1.389-0.08,1.828-0.241s0.773-0.419,1.002-0.773s0.343-0.74,0.343-1.156c0-0.609-0.221-1.11-0.664-1.503
			s-1.141-0.589-2.096-0.589H6.271V84.082z"/>
		<path fill="#000305" d="M23.726,88.274l1.635,0.202c-0.258,0.955-0.735,1.696-1.433,2.224s-1.588,0.791-2.672,0.791
			c-1.365,0-2.448-0.42-3.248-1.262c-0.8-0.84-1.2-2.02-1.2-3.537c0-1.57,0.404-2.789,1.213-3.656s1.857-1.301,3.146-1.301
			c1.248,0,2.268,0.425,3.059,1.274s1.187,2.045,1.187,3.586c0,0.094-0.003,0.234-0.009,0.422h-6.961
			c0.059,1.025,0.349,1.811,0.87,2.355s1.172,0.817,1.951,0.817c0.58,0,1.075-0.152,1.485-0.457S23.485,88.942,23.726,88.274z
			 M18.531,85.716h5.212c-0.07-0.785-0.27-1.374-0.598-1.767c-0.504-0.609-1.157-0.914-1.96-0.914c-0.727,0-1.337,0.243-1.833,0.729
			S18.584,84.902,18.531,85.716z"/>
		<path fill="#000305" d="M33.438,90.128c-0.586,0.498-1.15,0.85-1.692,1.055s-1.124,0.308-1.745,0.308
			c-1.025,0-1.813-0.25-2.364-0.752c-0.551-0.5-0.826-1.141-0.826-1.92c0-0.457,0.104-0.875,0.312-1.252
			c0.208-0.379,0.48-0.682,0.817-0.91s0.716-0.401,1.138-0.519c0.311-0.082,0.779-0.161,1.406-0.237
			c1.277-0.152,2.218-0.334,2.821-0.545c0.006-0.217,0.009-0.354,0.009-0.413c0-0.645-0.149-1.099-0.448-1.362
			c-0.404-0.357-1.005-0.536-1.802-0.536c-0.744,0-1.293,0.131-1.648,0.392S28.8,84.158,28.63,84.82l-1.547-0.211
			c0.141-0.662,0.372-1.196,0.694-1.604c0.322-0.406,0.788-0.721,1.397-0.939c0.609-0.221,1.315-0.33,2.118-0.33
			c0.797,0,1.444,0.094,1.942,0.281s0.864,0.424,1.099,0.707c0.234,0.285,0.398,0.644,0.492,1.077
			c0.053,0.27,0.079,0.756,0.079,1.459v2.109c0,1.471,0.034,2.401,0.101,2.79c0.067,0.391,0.201,0.764,0.4,1.121h-1.652
			C33.59,90.952,33.484,90.568,33.438,90.128z M33.306,86.595c-0.574,0.234-1.436,0.434-2.584,0.598
			c-0.65,0.094-1.11,0.199-1.38,0.316s-0.478,0.289-0.624,0.515s-0.22,0.476-0.22,0.751c0,0.422,0.16,0.773,0.479,1.055
			s0.787,0.422,1.402,0.422c0.609,0,1.151-0.133,1.626-0.399s0.823-0.632,1.046-1.095c0.17-0.357,0.255-0.885,0.255-1.582V86.595z"
			/>
		<path fill="#000305" d="M37.322,91.28V78.395h1.582V91.28H37.322z"/>
		<path fill="#000305" d="M44.837,91.28V79.916h-4.245v-1.521h10.213v1.521h-4.263V91.28H44.837z"/>
		<path fill="#000305" d="M51.692,80.214v-1.819h1.582v1.819H51.692z M51.692,91.28v-9.334h1.582v9.334H51.692z"/>
		<path fill="#000305" d="M55.683,91.28v-9.334h1.415v1.31c0.293-0.457,0.683-0.824,1.169-1.103s1.04-0.418,1.661-0.418
			c0.691,0,1.258,0.144,1.701,0.431s0.754,0.688,0.936,1.204c0.738-1.09,1.699-1.635,2.883-1.635c0.926,0,1.638,0.257,2.136,0.77
			s0.747,1.302,0.747,2.368v6.407h-1.573V85.4c0-0.633-0.052-1.088-0.154-1.366c-0.102-0.278-0.288-0.503-0.558-0.673
			s-0.586-0.255-0.949-0.255c-0.656,0-1.201,0.219-1.635,0.654c-0.434,0.438-0.65,1.136-0.65,2.097v5.423h-1.582v-6.064
			c0-0.703-0.129-1.23-0.387-1.582s-0.68-0.527-1.266-0.527c-0.445,0-0.857,0.117-1.235,0.352s-0.652,0.577-0.822,1.028
			s-0.255,1.102-0.255,1.951v4.843H55.683z"/>
		<path fill="#000305" d="M77.066,88.274l1.635,0.202c-0.258,0.955-0.735,1.696-1.433,2.224s-1.588,0.791-2.672,0.791
			c-1.365,0-2.448-0.42-3.247-1.262c-0.801-0.84-1.2-2.02-1.2-3.537c0-1.57,0.404-2.789,1.213-3.656s1.857-1.301,3.146-1.301
			c1.248,0,2.268,0.425,3.059,1.274s1.187,2.045,1.187,3.586c0,0.094-0.003,0.234-0.009,0.422h-6.961
			c0.059,1.025,0.349,1.811,0.87,2.355s1.172,0.817,1.951,0.817c0.58,0,1.075-0.152,1.485-0.457S76.826,88.942,77.066,88.274z
			 M71.872,85.716h5.212c-0.07-0.785-0.27-1.374-0.598-1.767c-0.504-0.609-1.157-0.914-1.96-0.914c-0.727,0-1.337,0.243-1.833,0.729
			C72.199,84.251,71.925,84.902,71.872,85.716z"/>
	</g>
	<g enable-background="new    ">
		<path fill="#0EB002" d="M82.064,91.28V79.916h-4.245v-1.521h10.213v1.521H83.77V91.28H82.064z"/>
		<path fill="#0EB002" d="M89.808,91.28V78.395h5.713c1.148,0,2.021,0.116,2.619,0.348s1.075,0.64,1.433,1.226
			s0.536,1.233,0.536,1.942c0,0.914-0.296,1.685-0.888,2.312s-1.506,1.025-2.742,1.195c0.451,0.217,0.794,0.431,1.028,0.642
			c0.498,0.457,0.97,1.028,1.415,1.714l2.241,3.507h-2.145l-1.705-2.681c-0.498-0.773-0.908-1.365-1.23-1.775
			s-0.61-0.697-0.866-0.861c-0.254-0.164-0.514-0.278-0.777-0.343c-0.193-0.041-0.51-0.062-0.949-0.062h-1.978v5.722H89.808z
			 M91.513,84.082h3.665c0.779,0,1.389-0.08,1.828-0.241s0.773-0.419,1.002-0.773s0.343-0.74,0.343-1.156
			c0-0.609-0.222-1.11-0.663-1.503c-0.443-0.393-1.142-0.589-2.097-0.589h-4.078V84.082z"/>
		<path fill="#0EB002" d="M101.365,91.28l4.948-12.885h1.837l5.273,12.885h-1.942l-1.503-3.902h-5.388l-1.415,3.902H101.365z
			 M105.083,85.989h4.368l-1.345-3.568c-0.41-1.084-0.715-1.975-0.914-2.672c-0.164,0.826-0.396,1.646-0.694,2.461L105.083,85.989z"
			/>
		<path fill="#0EB002" d="M123.979,86.762l1.705,0.431c-0.357,1.4-1.001,2.469-1.929,3.204c-0.93,0.735-2.064,1.103-3.406,1.103
			c-1.389,0-2.518-0.282-3.389-0.849c-0.869-0.564-1.531-1.384-1.986-2.456c-0.453-1.072-0.681-2.224-0.681-3.454
			c0-1.342,0.257-2.512,0.769-3.512c0.514-0.998,1.242-1.758,2.189-2.275c0.945-0.52,1.987-0.778,3.124-0.778
			c1.289,0,2.373,0.328,3.252,0.984s1.491,1.579,1.837,2.769l-1.679,0.396c-0.299-0.938-0.732-1.62-1.301-2.048
			s-1.283-0.642-2.145-0.642c-0.99,0-1.817,0.237-2.483,0.712c-0.664,0.475-1.132,1.111-1.401,1.912
			c-0.27,0.799-0.404,1.624-0.404,2.474c0,1.096,0.159,2.052,0.479,2.87c0.318,0.816,0.815,1.428,1.489,1.832
			s1.403,0.606,2.188,0.606c0.955,0,1.764-0.275,2.426-0.826S123.745,87.846,123.979,86.762z"/>
	</g>
</g>
<path id="Rectangle_751" fill="#FFCE23" d="M46.625,96.281h37c0.828,0,1.5,0.671,1.5,1.5l0,0c0,0.828-0.672,1.5-1.5,1.5h-37
	c-0.829,0-1.5-0.672-1.5-1.5l0,0C45.125,96.952,45.796,96.281,46.625,96.281z"/>
<g>
	<path fill="#FFCE23" d="M59.777,29.14h5.336c1.052,0,1.901,0.143,2.549,0.428s1.183,0.695,1.606,1.229
		c0.422,0.533,0.729,1.155,0.919,1.863c0.19,0.708,0.286,1.459,0.286,2.251c0,1.243-0.143,2.206-0.425,2.89
		c-0.283,0.685-0.676,1.258-1.178,1.72c-0.502,0.463-1.041,0.771-1.618,0.923c-0.786,0.212-1.5,0.317-2.14,0.317h-5.336V29.14z
		 M63.369,31.772v6.351h0.88c0.751,0,1.284-0.083,1.603-0.25c0.316-0.167,0.565-0.458,0.744-0.872
		c0.18-0.415,0.271-1.087,0.271-2.018c0-1.232-0.202-2.075-0.604-2.529c-0.401-0.455-1.067-0.682-1.997-0.682H63.369z"/>
</g>
</svg>
