<svg xmlns="http://www.w3.org/2000/svg" width="24" height="23.922" viewBox="0 0 24 23.922">
  <path id="steering-wheel" d="M12,0A12.013,12.013,0,0,0,0,12c.6,15.9,23.4,15.893,24,0A12.013,12.013,0,0,0,12,0Zm0,2a10.008,10.008,0,0,1,9.3,6.338L14.024,9.793a10.705,10.705,0,0,1-4.19,0L2.694,8.365A10.009,10.009,0,0,1,12,2ZM2,12.107l4.155.831a4,4,0,0,1,2.733,2.018l.625,1.153a4.006,4.006,0,0,1,.482,1.9V21.8a10.014,10.014,0,0,1-7.99-9.693ZM14,21.8V18.013a4.006,4.006,0,0,1,.482-1.9l.625-1.153a4,4,0,0,1,2.733-2.018L22,12.107A10.014,10.014,0,0,1,14,21.8Z" fill="#0eb002"/>
</svg>
