<svg id="receipt" xmlns="http://www.w3.org/2000/svg" width="18" height="24" viewBox="0 0 18 24">
  <path id="Path_5924" data-name="Path 5924" d="M16,0H8A5.006,5.006,0,0,0,3,5V23a1,1,0,0,0,1.564.825L6.67,22.386l2.106,1.439a1,1,0,0,0,1.13,0l2.1-1.439,2.1,1.439a1,1,0,0,0,1.131,0l2.1-1.438,2.1,1.437A1,1,0,0,0,21,23V5A5.006,5.006,0,0,0,16,0Zm3,21.1-1.1-.752a1,1,0,0,0-1.132,0l-2.1,1.439-2.1-1.439a1,1,0,0,0-1.131,0l-2.1,1.439-2.1-1.439a1,1,0,0,0-1.129,0L5,21.1V5A3,3,0,0,1,8,2h8a3,3,0,0,1,3,3Z" transform="translate(-3)" fill="#0eb002"/>
  <rect id="Rectangle_722" data-name="Rectangle 722" width="10" height="2" rx="1" transform="translate(4 7.964)" fill="#0eb002"/>
  <rect id="Rectangle_723" data-name="Rectangle 723" width="8" height="2" rx="1" transform="translate(4 11.964)" fill="#0eb002"/>
</svg>
