<svg xmlns="http://www.w3.org/2000/svg" width="23.406" height="26.069" viewBox="0 0 23.406 26.069">
  <g id="Group_1244" data-name="Group 1244" transform="translate(-3.399 -314.416)">
    <path id="Path_14777" data-name="Path 14777" d="M-204.923,59.77V50.088a2.318,2.318,0,0,0-1.159-2.008l-8.385-4.841a2.318,2.318,0,0,0-2.318,0l-8.385,4.841a2.318,2.318,0,0,0-1.159,2.008V59.77a2.318,2.318,0,0,0,1.159,2.008l8.385,4.841a2.318,2.318,0,0,0,2.318,0l8.385-4.841A2.318,2.318,0,0,0-204.923,59.77Z" transform="translate(230.728 272.521)" fill="#fff" stroke="#000" stroke-miterlimit="10" stroke-width="2"/>
    <text id="P" transform="translate(10.945 331.789)" fill="#202020" font-size="14" font-family="Helvetica-Bold, Helvetica" font-weight="700"><tspan x="0" y="0">P</tspan></text>
  </g>
</svg>
