<svg xmlns="http://www.w3.org/2000/svg" viewBox="0 0 122.9 100.9" fill="#30a836" xmlns:v="https://vecta.io/nano"><path d="M81.7 35.383l-17.3-10a5.98 5.98 0 0 0-5.8 0l-17.3 10c-1.8 1-2.9 3-2.9 5v20c0 2.1 1.1 4 2.9 5l17.3 10c.9.5 1.9.8 2.9.8s2-.3 2.9-.8l17.3-10c1.8-1 2.9-3 2.9-5v-20c0-2-1.1-3.9-2.9-5zm.9 25.1c0 1.4-.7 2.6-1.9 3.3l-17.3 10a3.7 3.7 0 0 1-3.8 0l-17.3-10c-1.2-.7-1.9-1.9-1.9-3.3v-20c0-1.4.7-2.6 1.9-3.3l17.3-10c.6-.3 1.2-.5 1.9-.5s1.3.2 1.9.5l17.3 10c1.2.7 1.9 1.9 1.9 3.3v20z"/><path d="M62.7 39.383h-7.4v21.1h4.8v-7.3h2.3c2.5 0 4.6-.7 6.1-2s2.3-3 2.3-5.1c-.1-4.4-2.8-6.7-8.1-6.7zm-.8 10.2H60v-6.5h1.9c2.5 0 3.8 1.1 3.8 3.2 0 2.2-1.3 3.3-3.8 3.3z" enable-background="new"/></svg>