<svg xmlns="http://www.w3.org/2000/svg" width="19.275" height="20" viewBox="0 0 19.275 20">
  <path id="clip" d="M19.137,8a.833.833,0,0,0-1.178,0L8.885,17.11a4.166,4.166,0,1,1-5.892-5.891L11.782,2.4a2.5,2.5,0,1,1,3.535,3.534L6.528,14.753a.851.851,0,0,1-1.178,0,.833.833,0,0,1,0-1.178l7.824-7.86A.833.833,0,1,0,12,4.537L4.173,12.4a2.5,2.5,0,0,0,0,3.535,2.56,2.56,0,0,0,3.535,0l8.787-8.825A4.165,4.165,0,1,0,10.6,1.217L1.816,10.041a5.832,5.832,0,0,0,8.247,8.247l9.074-9.111a.833.833,0,0,0,0-1.181Z" transform="translate(-0.108 0.003)" fill="#0eb002"/>
</svg>
