<svg xmlns="http://www.w3.org/2000/svg" width="26.333" height="27.936" viewBox="0 0 26.333 27.936">
  <g id="Group_869" data-name="Group 869" transform="translate(1.174 1)">
    <path id="Path" d="M23.651,7.213,22.81,5.756A2.579,2.579,0,0,0,19.292,4.8h0a2.57,2.57,0,0,1-3.52-.915,2.457,2.457,0,0,1-.345-1.235h0A2.583,2.583,0,0,0,12.845,0H11.151A2.568,2.568,0,0,0,8.584,2.581h0A2.582,2.582,0,0,1,6,5.126a2.474,2.474,0,0,1-1.236-.347h0a2.58,2.58,0,0,0-3.519.951l-.9,1.483a2.58,2.58,0,0,0,.939,3.519h0a2.583,2.583,0,0,1,1.291,2.236A2.582,2.582,0,0,1,1.284,15.2h0A2.569,2.569,0,0,0,.345,18.71h0L1.2,20.181a2.583,2.583,0,0,0,3.52,1h0a2.555,2.555,0,0,1,3.507.939,2.457,2.457,0,0,1,.345,1.235h0a2.581,2.581,0,0,0,2.581,2.581h1.693a2.582,2.582,0,0,0,2.581-2.569h0a2.568,2.568,0,0,1,2.581-2.581,2.646,2.646,0,0,1,1.235.345h0a2.582,2.582,0,0,0,3.52-.938h0l.889-1.483a2.569,2.569,0,0,0-.939-3.519h0a2.571,2.571,0,0,1-.939-3.52,2.529,2.529,0,0,1,.939-.939h0a2.582,2.582,0,0,0,.939-3.507h0Z" fill="none" stroke="#0eb002" stroke-linecap="round" stroke-linejoin="round" stroke-miterlimit="10" stroke-width="2"/>
    <circle id="Oval" cx="2.636" cy="2.636" r="2.636" transform="translate(9.369 10.333)" fill="none" stroke="#0eb002" stroke-linecap="round" stroke-linejoin="round" stroke-miterlimit="10" stroke-width="2"/>
  </g>
</svg>
