<svg xmlns="http://www.w3.org/2000/svg" width="22.145" height="22.145" viewBox="0 0 22.145 22.145">
  <g id="share" transform="translate(-0.005 0)">
    <path id="Path_5914" data-name="Path 5914" d="M.005,11.06a4.284,4.284,0,0,0,7.2,3.152l6.385,2.883a4.363,4.363,0,0,0-.073.723,4.314,4.314,0,1,0,.762-2.435l-6-2.709a4.215,4.215,0,0,0,0-3.214l5.99-2.722A4.294,4.294,0,1,0,13.518,4.3a4.265,4.265,0,0,0,.074.724L7.224,7.92A4.285,4.285,0,0,0,.005,11.06Z" transform="translate(0 0)" fill="#0eb002"/>
  </g>
</svg>
