<svg xmlns="http://www.w3.org/2000/svg" width="20.407" height="17.49" viewBox="0 0 20.407 17.49">
  <path id="thumb" d="M19.36,6.628a4.246,4.246,0,0,0-3.208-1.463H12.761l.286-1.735A2.582,2.582,0,0,0,8.183,1.868l-1.627,3.3H4.251A4.256,4.256,0,0,0,0,9.415v4.251a4.256,4.256,0,0,0,4.251,4.251H15.557a4.271,4.271,0,0,0,4.209-3.656l.6-4.251A4.251,4.251,0,0,0,19.36,6.628ZM1.7,13.666V9.415a2.55,2.55,0,0,1,2.55-2.55h1.7v9.351h-1.7A2.55,2.55,0,0,1,1.7,13.666ZM18.678,9.771l-.6,4.251a2.561,2.561,0,0,1-2.521,2.194H7.651V6.639a.85.85,0,0,0,.2-.248L9.708,2.62a.91.91,0,0,1,1.464-.176.871.871,0,0,1,.2.714l-.449,2.72a.85.85,0,0,0,.839.986h4.393a2.55,2.55,0,0,1,2.526,2.907Z" transform="translate(0 -0.426)" fill="#0eb002"/>
</svg>
