<svg xmlns="http://www.w3.org/2000/svg" width="21.818" height="20" viewBox="0 0 21.818 20">
  <path id="truck_stroke" data-name="truck stroke" d="M21.818,11.59a4.545,4.545,0,0,0-.233-1.437L20.368,6.5a2.727,2.727,0,0,0-2.587-1.865H15.455V3.727A2.727,2.727,0,0,0,12.727,1h-10A2.727,2.727,0,0,0,0,3.727V17.818a3.2,3.2,0,0,0,5.455,2.225,3.2,3.2,0,0,0,5.455-2.225v-.455h2.727v.455a3.182,3.182,0,0,0,6.364,0v-.455h1.818ZM17.781,6.455a.909.909,0,0,1,.862.622l1.005,3.015H15.455V6.455ZM3.182,19.182a1.364,1.364,0,0,1-1.364-1.364v-.455H4.545v.455a1.364,1.364,0,0,1-1.364,1.364Zm5.909-1.364a1.364,1.364,0,0,1-2.727,0v-.455H9.091Zm9.091,0a1.364,1.364,0,0,1-2.727,0v-.455h2.727Zm-2.727-2.273V11.909H20v3.636Z" transform="translate(0 -1)" fill="#2976e9"/>
</svg>
