<?xml version="1.0" encoding="UTF-8"?>
<svg version="1.1" xmlns="http://www.w3.org/2000/svg" width="512" height="512">
<path d="M0 0 C0.95849759 -0.00445784 1.91699518 -0.00891569 2.90453815 -0.01350862 C4.47979912 -0.01323207 4.47979912 -0.01323207 6.08688354 -0.01294994 C7.76377526 -0.01846498 7.76377526 -0.01846498 9.47454357 -0.02409142 C13.23448833 -0.03513708 16.99440545 -0.03897364 20.75436401 -0.04278088 C23.44481063 -0.04904492 26.1352543 -0.05567891 28.82569885 -0.0626936 C36.91017794 -0.08244641 44.99465826 -0.09252356 53.07915545 -0.10142139 C56.88905449 -0.10580698 60.69895215 -0.11117315 64.5088501 -0.11641026 C77.17922171 -0.13342277 89.84959247 -0.1479154 102.51997375 -0.155159 C105.80725099 -0.15706881 109.09452821 -0.15898915 112.38180542 -0.16094494 C113.19881475 -0.16142868 114.01582408 -0.16191242 114.85759127 -0.16241082 C128.08301997 -0.17070536 141.30835804 -0.19603241 154.5337472 -0.22852562 C168.12120269 -0.26163531 181.70861221 -0.27961136 195.29610825 -0.28280324 C202.92118702 -0.28496492 210.54613372 -0.29366314 218.1711731 -0.31926441 C224.6672528 -0.34102508 231.16316835 -0.34899566 237.65928036 -0.33929763 C240.97028476 -0.334768 244.28067765 -0.33876408 247.59168053 -0.35605907 C251.19151969 -0.37380599 254.79050978 -0.36665686 258.39035034 -0.35352612 C259.42267855 -0.36449536 260.45500675 -0.37546461 261.51861763 -0.38676625 C273.79465936 -0.27920678 285.5220961 4.03098764 294.65670776 12.32172108 C306.65273561 24.81841787 309.59530021 38.13317206 309.44186401 54.92328358 C309.43761917 56.699939 309.43761917 56.699939 309.43328857 58.51248646 C309.42217546 62.26150477 309.39708732 66.01027609 309.37155151 69.75922108 C309.36151026 72.31520719 309.35238642 74.87119708 309.34420776 77.42718983 C309.32226522 83.66294988 309.28887691 89.89856782 309.24655151 96.13422108 C310.56175026 96.12422832 310.56175026 96.12422832 311.90351868 96.1140337 C320.24224701 96.05345546 328.58089947 96.00801239 336.91979885 95.97878456 C341.2050015 95.96325221 345.49001952 95.94224702 349.77511597 95.90790272 C353.92487922 95.87485832 358.07446702 95.85727515 362.22435188 95.84958935 C363.79287534 95.84412541 365.36139126 95.8334612 366.92983818 95.81703091 C396.91131319 95.51598704 422.54203289 104.82823623 443.99655151 125.82562733 C467.23448863 150.16169867 469.88640776 178.38025929 469.78385353 210.15596128 C469.7736046 214.33298476 469.78315086 218.50997606 469.78939819 222.68700123 C469.79663642 229.69103882 469.78718402 236.69490663 469.76803589 243.69891834 C469.74623182 251.76700494 469.75335947 259.83468763 469.77534151 267.90276462 C469.79355443 274.86972651 469.79602645 281.83656762 469.78558683 288.80354565 C469.77938959 292.94752759 469.77841211 297.09132022 469.79173279 301.23528957 C469.80337874 305.12868255 469.79510836 309.02155915 469.77215576 312.91489697 C469.76691675 314.33375032 469.76829882 315.75264798 469.77720642 317.17148304 C469.86449598 332.50073843 465.95293754 344.17522921 455.43405151 355.38422108 C451.39867209 359.22163849 447.33278758 361.88700043 442.24655151 364.13422108 C441.40608276 364.52738514 440.56561401 364.9205492 439.69967651 365.32562733 C428.1350682 369.81082001 415.43154647 368.48895164 403.24655151 368.13422108 C403.1362561 368.71067371 403.02596069 369.28712635 402.912323 369.88104725 C399.84363224 384.89199479 390.4772618 397.65126556 377.74655151 406.07172108 C361.636429 415.46738286 344.55971638 419.05707067 326.05905151 415.13422108 C309.2323758 410.06736494 295.19012573 400.52927982 286.24655151 385.13422108 C283.22778718 379.37184021 281.32545061 374.60761563 280.24655151 368.13422108 C230.74655151 368.13422108 181.24655151 368.13422108 130.24655151 368.13422108 C129.58655151 371.10422108 128.92655151 374.07422108 128.24655151 377.13422108 C121.63138311 392.95584997 109.20122838 405.27922849 93.47702026 411.91547108 C76.25683116 418.41208413 58.1567634 418.15114396 41.32907104 410.62128162 C24.96675959 402.865968 15.57686585 390.88111315 8.09420776 374.54437733 C7.24655151 372.13422108 7.24655151 372.13422108 7.24655151 368.13422108 C6.6522937 368.16902576 6.05803589 368.20383045 5.44577026 368.23968983 C-6.83112778 368.64064606 -17.51720402 364.96356875 -26.81594849 357.00922108 C-36.39733594 347.98711584 -42.6411652 337.52222439 -43.25960636 324.1180706 C-43.28256655 321.9639117 -43.28430631 319.80945282 -43.26811218 317.65523243 C-43.27505771 316.45767085 -43.28200324 315.26010926 -43.28915924 314.02625793 C-43.30417697 310.73760992 -43.30153894 307.44955221 -43.29100621 304.16090524 C-43.28396735 300.60046831 -43.30004736 297.04012059 -43.31300354 293.47971058 C-43.33457082 286.518593 -43.33453544 279.55763936 -43.326378 272.59649939 C-43.32006104 266.93517256 -43.32123052 261.2738933 -43.32765007 255.61256695 C-43.32855173 254.80476538 -43.32945338 253.99696381 -43.33038236 253.16468341 C-43.33223369 251.52329532 -43.33409625 249.88190723 -43.33596992 248.24051916 C-43.35252301 232.87216266 -43.34385039 217.50389816 -43.32698434 202.13554721 C-43.31228928 188.09648319 -43.32691742 174.05763323 -43.3557545 160.01859678 C-43.38519449 145.57770232 -43.39610741 131.13690649 -43.3865723 116.69598335 C-43.38554982 115.06055257 -43.38455521 113.42512178 -43.38358879 111.78969097 C-43.3831124 110.98517577 -43.38263601 110.18066057 -43.38214519 109.35176613 C-43.37998714 103.70258381 -43.3897525 98.05349555 -43.40435982 92.40433407 C-43.42193404 85.51207223 -43.42169321 78.62008315 -43.39900816 71.72783179 C-43.38791187 68.21618381 -43.3845972 64.70501545 -43.40330887 61.19338894 C-43.4193016 57.3752043 -43.40422682 53.55831773 -43.38163757 49.74019337 C-43.3934733 48.64619789 -43.40530903 47.55220242 -43.41750342 46.42505556 C-43.26601792 33.75311462 -38.2943095 22.45944688 -29.75344849 13.13422108 C-21.48001826 5.77730857 -11.30096817 0.02443018 0 0 Z M-9.00344849 37.38422108 C-12.61310073 43.05653174 -13.00330617 49.23441187 -12.99395752 55.8158617 C-12.99566956 56.54374393 -12.99738159 57.27162617 -12.99914551 58.02156544 C-13.00243042 60.4446367 -12.99145086 62.86742549 -12.98049927 65.29047108 C-12.97988604 67.06362366 -12.98015453 68.83677672 -12.98122978 70.60992908 C-12.98167994 75.34371531 -12.97011688 80.07739972 -12.95600891 84.81116199 C-12.94459031 89.25869525 -12.94408111 93.70620417 -12.94265747 98.15375233 C-12.93217701 111.14725531 -12.90425458 124.14073949 -12.87844849 137.13422108 C-12.83719849 166.17422108 -12.79594849 195.21422108 -12.75344849 225.13422108 C83.27655151 225.13422108 179.30655151 225.13422108 278.24655151 225.13422108 C278.32905151 195.43422108 278.41155151 165.73422108 278.49655151 135.13422108 C278.53296753 125.75758045 278.56938354 116.38093983 278.60690308 106.72015858 C278.6202811 98.31244667 278.6202811 98.31244667 278.62832642 89.90472889 C278.63205191 86.16081727 278.64703718 82.41713269 278.66885376 78.67328358 C278.69633119 73.89454809 278.70450865 69.11614179 278.69884062 64.33733463 C278.70002548 62.58554332 278.70793341 60.83374027 278.72341204 59.08201694 C279.25260875 46.83673486 279.25260875 46.83673486 274.24655151 36.13422108 C268.29869888 30.99083176 262.825993 30.41666378 255.1885376 30.50603199 C253.54917187 30.49539041 253.54917187 30.49539041 251.87668765 30.48453385 C248.2253634 30.46697338 244.57510631 30.48505006 240.92379761 30.50311756 C238.30183935 30.49797811 235.67988455 30.49069665 233.05793762 30.48143482 C226.68276987 30.46308627 220.30790925 30.47155115 213.93275116 30.48952305 C208.75133506 30.50356442 203.57000218 30.50743856 198.38856888 30.50408077 C197.65036368 30.50360333 196.91215849 30.50312589 196.15158344 30.50263398 C194.65183108 30.50160762 193.15207874 30.50055226 191.65232642 30.49946821 C178.40079581 30.49090711 165.14941328 30.50755827 151.8979187 30.53729725 C139.04336328 30.56614496 126.18902106 30.57321193 113.33444214 30.55780506 C99.3287682 30.54104149 85.32319541 30.53700935 71.31751883 30.55451542 C69.8239801 30.55635978 68.33044137 30.5581945 66.83690262 30.56001949 C65.73468272 30.56138763 65.73468272 30.56138763 64.61019575 30.5627834 C59.43468685 30.56838694 54.25922738 30.56508344 49.08372116 30.55847454 C42.1183718 30.54993296 35.15333514 30.56290607 28.18803596 30.59032345 C25.62981772 30.59721814 23.0715708 30.59729372 20.51335335 30.59010792 C17.02542335 30.58143849 13.53844819 30.59732837 10.05059814 30.61955738 C9.03464896 30.61131661 8.01869977 30.60307585 6.97196424 30.59458536 C-0.39442247 30.68143131 -3.7532796 32.13405219 -9.00344849 37.38422108 Z M309.24655151 127.13422108 C309.24655151 183.23422108 309.24655151 239.33422108 309.24655151 297.13422108 C315.07278291 295.20034377 315.07278291 295.20034377 320.88327026 293.22015858 C321.56002808 292.9855492 322.23678589 292.75093983 322.93405151 292.50922108 C323.6185437 292.26945545 324.30303589 292.02968983 325.00827026 291.78265858 C340.23838319 287.37044436 358.04487333 289.68542325 372.05905151 296.82172108 C388.23164225 306.56891969 397.31905707 319.35173774 403.24655151 337.13422108 C406.93378078 337.25123311 410.62052693 337.32174153 414.30905151 337.38422108 C415.86656128 337.43449451 415.86656128 337.43449451 417.45553589 337.48578358 C425.33427311 337.58583103 429.78732797 336.49995209 435.55905151 330.88422108 C440.3335627 323.10353618 439.51015568 314.16187064 439.44186401 305.35297108 C439.43812757 303.9295112 439.43528358 302.50604872 439.43328857 301.08258533 C439.42570177 297.36062824 439.4060967 293.6388306 439.38388062 289.91693592 C439.36331465 286.1091779 439.35426401 282.30139379 439.34420776 278.49359608 C439.32284541 271.04039888 439.28877037 263.58733244 439.24655151 256.13422108 C437.99533508 256.12875263 437.99533508 256.12875263 436.71884155 256.12317371 C428.83324505 256.08520672 420.94805848 256.02825569 413.06275177 255.95031834 C409.00941926 255.91091622 404.95630163 255.87869245 400.90280151 255.86322498 C396.98623129 255.84801004 393.07025209 255.81348017 389.15394592 255.76591206 C387.66458797 255.7511478 386.17514561 255.74318292 384.68571472 255.74233723 C376.68620396 255.73323233 370.09286718 255.68921233 363.24655151 251.13422108 C359.84936507 247.51786131 359.1248144 244.19411665 359.08833313 239.33168507 C359.07854431 238.34310505 359.06875549 237.35452503 359.05867004 236.33598804 C359.05003685 234.71111217 359.05003685 234.71111217 359.04122925 233.05341053 C359.03132965 231.9118047 359.02143005 230.77019886 359.01123047 229.59399891 C358.97958451 225.81185465 358.9548457 222.02969781 358.93014526 218.24750233 C358.90957842 215.62861774 358.88858202 213.00973649 358.86717224 210.39085865 C358.81726025 204.19673121 358.77231589 198.00257806 358.72914988 191.80840033 C358.67976473 184.75643926 358.62485134 177.70452465 358.56947029 170.65260851 C358.45567317 156.14652213 358.34955898 141.64038821 358.24655151 127.13422108 C342.07655151 127.13422108 325.90655151 127.13422108 309.24655151 127.13422108 Z M389.24655151 129.13422108 C389.24655151 160.81422108 389.24655151 192.49422108 389.24655151 225.13422108 C405.74655151 225.13422108 422.24655151 225.13422108 439.24655151 225.13422108 C439.28780151 220.01922108 439.32905151 214.90422108 439.37155151 209.63422108 C439.38975952 208.05705311 439.40796753 206.47988514 439.42672729 204.8549242 C439.51444089 182.02675396 435.43825819 162.4947331 419.40670776 145.19672108 C410.76459713 136.94530261 400.72847217 132.00470124 389.24655151 129.13422108 Z M-12.75344849 256.13422108 C-16.82688321 285.24394808 -16.82688321 285.24394808 -8.50344849 331.44672108 C-4.45787673 335.40034802 -1.56797397 337.04642146 4.12155151 337.32172108 C5.66842651 337.22890858 5.66842651 337.22890858 7.24655151 337.13422108 C7.53787964 336.3117992 7.82920776 335.48937733 8.12936401 334.64203358 C15.01786765 315.88277525 25.14881408 303.66182538 43.01998901 294.75140858 C57.65297793 288.51969405 75.20741408 287.93687211 90.24655151 293.13422108 C107.08480738 300.11323502 119.56250976 310.68444957 126.74655151 327.69672108 C128.00192625 330.82469645 129.18087597 333.93719444 130.24655151 337.13422108 C179.08655151 337.13422108 227.92655151 337.13422108 278.24655151 337.13422108 C278.24655151 310.40422108 278.24655151 283.67422108 278.24655151 256.13422108 C182.21655151 256.13422108 86.18655151 256.13422108 -12.75344849 256.13422108 Z M43.55123901 331.21234608 C36.97751002 341.19866662 34.59500075 349.53737203 36.68014526 361.65375233 C39.19222205 370.56304329 45.2701201 377.25462084 53.07467651 381.98187733 C60.62886571 385.98994534 69.80185239 386.53126593 78.06295776 384.41156483 C88.33539586 380.53783626 94.56744769 374.90736525 99.28561401 364.93890858 C102.62824944 356.2230648 102.20064092 347.43740877 98.69577026 338.84125233 C93.74211009 329.58818898 86.27747621 323.59660881 76.29733276 320.53656483 C64.31860625 318.18645277 51.45832446 321.51978972 43.55123901 331.21234608 Z M317.24655151 331.13422108 C316.50405151 331.89734608 315.76155151 332.66047108 314.99655151 333.44672108 C309.68379754 341.60559325 308.0685238 349.44821546 309.24655151 359.13422108 C311.74212971 368.71617372 316.52258238 375.67709553 324.93795776 380.84515858 C333.24191051 385.48188346 341.60850893 386.78672957 351.02389526 384.44281483 C361.20161444 380.69477957 367.56286824 374.91924092 372.24655151 365.13422108 C375.3056976 357.29777837 375.54996994 348.77987223 372.68405151 340.82172108 C368.36665724 331.40612719 360.68292869 324.50101195 351.05123901 320.89984608 C338.10489799 317.36574741 326.30268749 321.71239789 317.24655151 331.13422108 Z " fill="#0DB001" transform="translate(42.753448486328125,47.86577892303467)"/>
</svg>
