<svg xmlns="http://www.w3.org/2000/svg" width="15.873" height="20" viewBox="0 0 15.873 20">
  <g id="user" transform="translate(-3)">
    <path id="Path_5914" data-name="Path 5914" d="M11.291,10.582A5.291,5.291,0,1,0,6,5.291a5.291,5.291,0,0,0,5.291,5.291Zm0-8.819A3.527,3.527,0,1,1,7.764,5.291a3.527,3.527,0,0,1,3.527-3.527Z" transform="translate(-0.354)" fill="#bbbfd0"/>
    <path id="Path_5915" data-name="Path 5915" d="M10.937,14A7.946,7.946,0,0,0,3,21.937a.882.882,0,1,0,1.764,0,6.173,6.173,0,0,1,12.346,0,.882.882,0,0,0,1.764,0A7.946,7.946,0,0,0,10.937,14Z" transform="translate(0 -2.819)" fill="#bbbfd0"/>
  </g>
</svg>
