<?xml version="1.0" encoding="UTF-8"?>
<svg version="1.1" viewBox="0 0 1600 1600" width="1280" height="1280"
  xmlns="http://www.w3.org/2000/svg">
  <path transform="translate(707 938)"
    d="m0 0c2.22-0 4.44-0.01 6.67-0.01 5.97-0.01 11.9-0.01 17.9-0.01 3.75 0 7.5 0 11.2-0.01 12.5-0.01 25-0.01 37.4-0.01h2.02 2.03c10.8 0 21.6-0.01 32.4-0.02 11.2-0.02 22.4-0.02 33.6-0.02 6.24 0 12.5-0.01 18.7-0.02 44.9-0.07 44.9-0.07 65.6 1.15 0.68 0.04 1.36 0.08 2.06 0.12 81.4 4.98 159 28.7 232 65 0.9 0.44 1.79 0.89 2.72 1.35 21.7 10.9 42.3 23.9 62.3 37.6 0.77 0.52 1.54 1.05 2.33 1.59 9.24 6.37 18.2 13 27 20 1.76 1.4 3.53 2.78 5.31 4.15 6.52 5.04 12.8 10.2 18.8 15.8 2.48 2.24 5.04 4.3 7.68 6.37 6.31 5.07 11.9 10.8 17.6 16.6 4.69 4.78 4.69 4.78 9.71 9.2 2.27 1.86 4.06 3.63 5.91 5.87 2.78 3.27 5.7 6.31 8.75 9.32 4.22 4.17 8.17 8.47 12 13 0.8 0.93 1.6 1.86 2.42 2.82 21.9 25.6 41.9 52.4 59.6 81.2 0.48 0.77 0.97 1.55 1.46 2.35 18.6 30.1 34.4 61.8 47.4 94.7 1.01 2.56 2.04 5.11 3.08 7.66 8.45 20.8 14.7 42.5 20.3 64.2 0.51 2 1.03 4.01 1.56 6.01 7.59 28.7 12.4 58.6 15.2 88.1 0.1 1.01 0.21 2.02 0.31 3.07 1.43 14.7 1.93 29.4 2.04 44.1 0.02 1.86 0.04 3.71 0.07 5.56 0.23 16.4-1.96 28.9-13.4 41.4-5.84 5.66-12.5 8.86-20 11.8-0.86 0.35-1.72 0.7-2.61 1.06-4.3 1.19-8.19 1.21-12.6 1.19-1.39 0.01-1.39 0.01-2.81 0.01-3.13 0.01-6.25 0-9.38 0-2.26 0-4.53 0.01-6.79 0.01-6.27 0.01-12.5 0.01-18.8 0.01-6.1 0-12.2 0-18.3 0.01-12.6 0.02-25.3 0.02-37.9 0.02-12.8 0.01-25.6 0.01-38.4 0.02h-2.44c-3.3 0.01-6.59 0.01-9.88 0.01-39 0.03-78 0.05-117 0.06-19.4 0-38.8 0.01-58.2 0.02-62.2 0.02-124 0.04-187 0.05h-8.92-17.9c-6.99 0-14 0-21 0.01h-6c-64.2 0-128 0.03-193 0.08-46.1 0.03-92.3 0.06-138 0.07h-2.87c-20.8 0.01-41.7 0.01-62.5 0.01h-22.4-5.56c-29.6 0-59.1 0.02-88.6 0.05-29.8 0.03-59.5 0.04-89.3 0.03-4.11-0.01-8.22-0.01-12.3-0.01h-2.44c-12.8-0.01-25.5 0.01-38.3 0.03-12.6 0.02-25.1 0.02-37.7 0-6.72-0.01-13.4-0.01-20.1 0.02-6.11 0.02-12.2 0.01-18.3-0.01-2.2-0.01-4.39 0-6.59 0.01-16.6 0.12-30.8-1.69-43.3-13.8-11.8-11.9-15.3-23.2-15.3-39.7 0.5-52.3 7.41-105 21.3-155 0.36-1.32 0.72-2.63 1.08-3.94 14.7-53.6 36.8-106 65.9-153 0.53-0.86 1.05-1.72 1.6-2.61 6.79-11 14-21.8 21.4-32.4 0.43-0.61 0.85-1.22 1.29-1.84 6.01-8.57 12.3-16.9 18.7-25.2 0.67-0.86 1.34-1.71 2.02-2.58 7.65-9.66 15.6-19 23.9-28.2 1.91-2.1 3.76-4.24 5.62-6.39 2.99-3.45 6.19-6.65 9.45-9.85 2.6-2.66 4.98-5.48 7.34-8.36 1.64-1.66 1.64-1.66 3.78-2.7 2.22-0.88 2.22-0.88 2.86-3.96 1.5-1.48 1.5-1.48 3.44-3.07 3.3-2.79 6.36-5.71 9.38-8.81 4.33-4.39 8.9-8.3 13.7-12.1 2.48-1.96 2.48-1.96 4.64-4.26 1.8-1.74 1.8-1.74 3.8-1.74v-2c1.33-1.23 1.33-1.23 3.19-2.62 0.69-0.52 1.38-1.04 2.09-1.57 0.76-0.56 1.51-1.12 2.29-1.69 1.57-1.18 3.15-2.37 4.73-3.55 0.79-0.6 1.59-1.2 2.41-1.82 2.67-2.05 5.28-4.16 7.89-6.3 8.35-6.84 17.2-12.9 26.1-18.9 2.12-1.42 4.24-2.85 6.36-4.29 7.84-5.29 15.8-10.4 23.9-15.2 0.87-0.52 1.73-1.04 2.62-1.57 70.8-42.1 149-68.8 308-83.6z"
    fill="#0eb002" />
  <path transform="translate(786 -.238)"
    d="m0 0c1.03-0.01 2.05-0.02 3.11-0.03 22.9-0.17 45.2 0.1 67.7 3.92 2.23 0.37 4.46 0.73 6.69 1.1 21.2 3.46 41.9 7.84 62.4 14.2 1.62 0.5 1.62 0.5 3.27 1.02 42.2 13.4 82.1 33.8 118 60 0.56 0.41 1.12 0.82 1.7 1.24 7.31 5.35 14.4 11 21.3 16.8 1.01 0.84 2.03 1.68 3.07 2.55 8.51 7.14 16.5 14.7 24.3 22.6 1.94 1.95 3.89 3.89 5.85 5.83 7.05 7.05 13.6 14.2 19.8 22 1.56 1.83 3.12 3.67 4.69 5.5 10.7 12.8 20.2 26.5 29.2 40.7 1.05 1.66 2.11 3.31 3.18 4.96 31.4 48.4 49.8 106 58 163 0.16 1.14 0.33 2.29 0.5 3.47 6.25 45.7 3.79 93.4-5.5 139-0.23 1.1-0.45 2.2-0.68 3.33-3.4 16.2-7.92 32-13.3 47.7-0.33 0.95-0.66 1.91-0.99 2.89-6.8 19.6-14.7 38.5-24.7 56.7-1.35 2.47-2.68 4.95-4 7.43-15.4 28.6-34.6 55.3-56.6 79.1-2.39 2.58-4.73 5.2-7.06 7.84-3.74 4.17-7.62 8.2-11.6 12.2-0.57 0.58-1.13 1.17-1.72 1.76-1.41 1.42-2.87 2.77-4.34 4.12h-2v2c-1.29 1.34-1.29 1.34-3.19 2.94-0.74 0.62-1.48 1.25-2.24 1.9-0.85 0.71-1.7 1.42-2.57 2.16-0.9 0.78-1.8 1.57-2.72 2.38-20.3 17.7-42.7 33.2-66.1 46.4-1.47 0.84-2.94 1.68-4.4 2.53-82.3 47.7-181 61.6-290 44.7-1.03-0.22-2.07-0.44-3.13-0.67-29.5-6.32-58.4-15.9-85.9-28.3-0.88-0.4-1.76-0.79-2.67-1.19-29.7-13.4-57.5-30.9-83.1-51.1-0.58-0.45-1.15-0.91-1.75-1.37-5.59-4.44-11-9.07-16.4-13.8-1.85-1.61-3.72-3.15-5.65-4.67-2.66-2.17-5.01-4.51-7.41-6.96-1.25-1.24-2.49-2.47-3.74-3.71-1.38-1.37-2.76-2.74-4.14-4.1-0.68-0.68-1.36-1.35-2.06-2.05-4-3.98-7.81-8.06-11.5-12.3-2.05-2.37-4.19-4.65-6.32-6.94-5.78-6.35-11.1-13-16.2-19.9-0.55-0.72-1.09-1.44-1.66-2.18-56.6-74.4-87.6-168-85.3-262 0.02-0.78 0.04-1.57 0.05-2.37 2-77.7 25.2-156 69-221 0.46-0.68 0.91-1.37 1.39-2.07 5.82-8.68 11.9-17.1 18.4-25.3 1.28-1.62 2.52-3.27 3.77-4.92 6.97-9.19 14.7-17.5 22.7-25.8 2.32-2.45 4.55-4.97 6.78-7.51 3.16-3.54 6.48-6.68 10.1-9.73 1.84-1.6 3.52-3.27 5.2-5.02 3.65-3.7 7.63-6.92 11.7-10.2 2.61-2.13 5.16-4.29 7.7-6.49 7.13-6.14 14.6-11.6 22.3-17 0.74-0.52 1.48-1.03 2.25-1.56 65.6-45.3 146-75 227-75.7z"
    fill="#0eb002" />
</svg>