<svg xmlns="http://www.w3.org/2000/svg" width="23.885" height="24" viewBox="0 0 23.885 24">
  <g id="Group_831" data-name="Group 831" transform="translate(-422 -4295)">
    <path id="Path_5915" data-name="Path 5915" d="M20.463,3.488A11.9,11.9,0,0,0,1.745,17.838L.057,24l6.3-1.654a11.88,11.88,0,0,0,5.683,1.448h.005A11.9,11.9,0,0,0,20.463,3.488Z" transform="translate(421.943 4295)" fill="#0eb002" fill-rule="evenodd"/>
    <path id="Path_5916" data-name="Path 5916" d="M17.472,14.382c-.3-.149-1.758-.868-2.031-.967s-.47-.149-.669.148-.767.967-.941,1.166-.347.223-.644.074a8.111,8.111,0,0,1-2.39-1.475,8.945,8.945,0,0,1-1.653-2.059c-.173-.3-.018-.458.13-.606s.3-.347.446-.521a1.975,1.975,0,0,0,.3-.495.546.546,0,0,0-.025-.521c-.075-.148-.669-1.611-.916-2.206s-.486-.5-.669-.51-.371-.01-.57-.01a1.089,1.089,0,0,0-.792.372,3.337,3.337,0,0,0-1.04,2.479A5.783,5.783,0,0,0,7.22,12.325,13.24,13.24,0,0,0,12.3,16.812a17.194,17.194,0,0,0,1.694.626,4.085,4.085,0,0,0,1.872.118,3.061,3.061,0,0,0,2.006-1.413,2.472,2.472,0,0,0,.173-1.413C17.967,14.6,17.769,14.531,17.472,14.382Z" transform="translate(421.897 4294.994)" fill="#fff" fill-rule="evenodd"/>
  </g>
</svg>
