<svg xmlns="http://www.w3.org/2000/svg" width="18.178" height="18.178" viewBox="0 0 18.178 18.178">
  <path id="world" d="M9.089,0a9.089,9.089,0,1,0,9.089,9.089A9.089,9.089,0,0,0,9.089,0Zm7.574,9.089A7.527,7.527,0,0,1,15.4,13.261l-.9-.9a.379.379,0,0,1-.111-.267v-.729a2.272,2.272,0,0,0-2.272-2.272H9.847a.757.757,0,0,1-.757-.757V7.953a.379.379,0,0,1,.379-.379,1.894,1.894,0,0,0,1.894-1.894V4.923a.379.379,0,0,1,.379-.379h1.044a1.906,1.906,0,0,0,1.338-.554l.286-.286a7.551,7.551,0,0,1,2.255,5.385ZM1.552,9.819,3.944,12.21a2.256,2.256,0,0,0,1.607.666H7.574a.757.757,0,0,1,.757.757v2.991a7.586,7.586,0,0,1-6.78-6.806Zm8.295,6.806V13.634a2.272,2.272,0,0,0-2.272-2.272H5.551a.757.757,0,0,1-.536-.222L1.638,7.763A7.558,7.558,0,0,1,13.222,2.749l-.17.17a.384.384,0,0,1-.267.111H11.74A1.894,1.894,0,0,0,9.847,4.923v.757a.379.379,0,0,1-.379.379A1.894,1.894,0,0,0,7.574,7.953v.379A2.272,2.272,0,0,0,9.847,10.6h2.272a.757.757,0,0,1,.757.757v.729a1.906,1.906,0,0,0,.554,1.338l1.013,1.013A8.15,8.15,0,0,1,12.787,15.7a7.194,7.194,0,0,1-2.94.927Z"/>
</svg>
